<?xml version="1.0" encoding="utf-8"?>
<!-- Generator: Adobe Illustrator 21.1.0, SVG Export Plug-In . SVG Version: 6.00 Build 0)  -->
<svg version="1.1" id="Слой_1" xmlns="http://www.w3.org/2000/svg" xmlns:xlink="http://www.w3.org/1999/xlink" x="0px" y="0px"
	 viewBox="0 0 841.9 595.3" style="enable-background:new 0 0 841.9 595.3;" xml:space="preserve">
<style type="text/css">
	.st0{fill:#FFFFFF;stroke:#000000;stroke-width:10;stroke-miterlimit:10;}
	.st1{fill:none;stroke:#000000;stroke-width:10;stroke-miterlimit:10;}
	.st2{fill:none;stroke:#000000;stroke-width:10;stroke-linecap:round;stroke-miterlimit:10;}
</style>
<rect x="241" y="163" class="st0" width="169.9" height="246"/>
<path class="st0" d="M508.7,260.8h-93.1c-1.9,0-3.5,1.6-3.5,3.5v140c0,1.9,1.6,3.5,3.5,3.5h93.1c1.9,0,3.5-1.6,3.5-3.5v-140
	C512.2,262.4,510.6,260.8,508.7,260.8z"/>
<polygon class="st0" points="544,409 199,409 199,409 544,409 "/>
<g>
	<line class="st1" x1="295" y1="197.5" x2="295" y2="234.4"/>
	<line class="st1" x1="266.1" y1="229.5" x2="300" y2="229.5"/>
</g>
<g>
	<line class="st1" x1="374" y1="197.5" x2="374" y2="234.4"/>
	<line class="st1" x1="345.1" y1="229.5" x2="379" y2="229.5"/>
</g>
<g>
	<line class="st1" x1="295" y1="267.6" x2="295" y2="304.4"/>
	<line class="st1" x1="266.1" y1="299.6" x2="300" y2="299.6"/>
</g>
<g>
	<line class="st1" x1="374" y1="267.6" x2="374" y2="304.4"/>
	<line class="st1" x1="345.1" y1="299.6" x2="379" y2="299.6"/>
</g>
<g>
	<line class="st1" x1="295" y1="346.9" x2="295" y2="383.8"/>
	<line class="st1" x1="266.1" y1="378.9" x2="300" y2="378.9"/>
</g>
<g>
	<line class="st1" x1="374" y1="346.9" x2="374" y2="383.8"/>
	<line class="st1" x1="345.1" y1="378.9" x2="379" y2="378.9"/>
</g>
<g>
	<line class="st1" x1="442.4" y1="284.1" x2="442.4" y2="306.4"/>
	<line class="st1" x1="426.8" y1="301.5" x2="447.4" y2="301.5"/>
</g>
<g>
	<line class="st1" x1="490.1" y1="284" x2="490.1" y2="306.3"/>
	<line class="st1" x1="474.6" y1="301.5" x2="495.1" y2="301.5"/>
</g>
<g>
	<line class="st1" x1="442.5" y1="358.3" x2="442.5" y2="380.6"/>
	<line class="st1" x1="426.8" y1="375.6" x2="447.4" y2="375.6"/>
</g>
<g>
	<line class="st1" x1="490.2" y1="358.2" x2="490.2" y2="380.5"/>
	<line class="st1" x1="474.6" y1="375.6" x2="495.1" y2="375.6"/>
</g>
<line class="st2" x1="414.5" y1="205" x2="511" y2="262"/>
<g id="XMLID_1_">
	<polygon class="st2" points="371.6,122.6 417.5,163 234.4,163 280.4,122.6 	"/>
</g>
</svg>
