<?xml version="1.0" encoding="utf-8"?>
<!-- Generator: Adobe Illustrator 21.1.0, SVG Export Plug-In . SVG Version: 6.00 Build 0)  -->
<svg version="1.1" id="Слой_1" xmlns="http://www.w3.org/2000/svg" xmlns:xlink="http://www.w3.org/1999/xlink" x="0px" y="0px"
	 viewBox="0 0 841.9 595.3" style="enable-background:new 0 0 841.9 595.3;" xml:space="preserve">
<style type="text/css">
	.st0{fill:#69FF31;}
	.st1{fill:none;stroke:#201600;stroke-linecap:round;stroke-miterlimit:10;}
	.st2{fill:#FFFFFF;}
	.st3{fill:#FFFFFF;stroke:#201600;stroke-linecap:round;stroke-miterlimit:10;}
	.st4{fill:#FFF933;}
	.st5{fill:#FF3333;}
</style>
<g id="XMLID_1_">
	<g>
		<path class="st0" d="M226.1,208.2c9.1,0,14.7,9.8,10.2,17.6l-0.8,1.5c0,0,0,0,0,0c-17.5,27.9-48.5,46.4-83.8,46.4
			c-35.3,0-66.3-18.5-83.8-46.4c0,0,0,0,0,0l-0.9-1.5c-4.5-7.8,1.1-17.6,10.2-17.6H226.1z"/>
		<path class="st0" d="M236.3,225.8c4.5-7.8-1.1-17.6-10.2-17.6h-149c-9.1,0-14.7,9.8-10.2,17.6l0.9,1.5c-9.5-15.2-15-33.2-15-52.5
			C52.7,120.2,97,76,151.6,76c54.6,0,98.9,44.3,98.9,98.9c0,19.3-5.5,37.2-15,52.4L236.3,225.8z"/>
		<path class="st0" d="M235.4,227.3l-73.7,127.6c-4.5,7.8-15.8,7.8-20.4,0L67.8,227.3c17.5,27.9,48.5,46.4,83.8,46.4
			C186.9,273.7,217.9,255.2,235.4,227.3z"/>
	</g>
	<g>
		<path class="st1" d="M67.7,227.3c-9.5-15.2-15-33.2-15-52.5C52.7,120.2,97,76,151.6,76c54.6,0,98.9,44.3,98.9,98.9
			c0,19.3-5.5,37.2-15,52.4"/>
		<path class="st1" d="M235.4,227.3l-73.7,127.6c-4.5,7.8-15.8,7.8-20.4,0L67.8,227.3"/>
	</g>
</g>
<g id="XMLID_2_">
	<g>
		<path class="st2" d="M215.4,189c1.8,1.8,1.8,4.6,0,6.4l-16.3,16.3c-1.5,1.5-4,1.5-5.5,0l-0.8-0.8l3.2-2.5c3-0.1,6-1.4,8.4-3.7
			l2.6-2.6l-5.5-5.5l7.6-7.6C210.8,187.2,213.7,187.2,215.4,189z"/>
		<path class="st2" d="M196.1,208.4c-1.8,0.1-3.7-0.2-5.4-1l10.8-10.8l5.5,5.5l-2.6,2.6C202.1,207,199.1,208.2,196.1,208.4z"/>
		<path class="st2" d="M201.5,196.6l-10.8,10.8c-0.7-0.3-1.4-0.7-2.1-1.1c0.1-1.2,0.1-2.4,0.1-3.6c0-11.2-4-21.5-10.6-29.4
			L201.5,196.6z"/>
		<path class="st2" d="M196.1,208.4l-3.2,2.5L190,208l0.6-0.6C192.4,208.1,194.2,208.4,196.1,208.4z"/>
		<path class="st2" d="M188.7,202.7c0,1.2,0,2.4-0.1,3.6c-0.7-0.5-1.3-1-1.9-1.6l-21-21l11.5-11.5l1.1,1.1
			C184.8,181.2,188.7,191.5,188.7,202.7z"/>
		<path class="st2" d="M186.6,204.7c0.6,0.6,1.3,1.1,1.9,1.6c-1.8,23.6-21.2,42.1-44.8,42.1c-23.2,0-42.3-17.8-44.7-40.7
			c0.7,3.8,4,6.7,8,6.7c4.5,0,8.2-3.7,8.2-8.2c0-0.3,0-0.5,0-0.8h0c1.3,14.8,13.6,26.4,28.5,26.4c15.8,0,28.7-13,28.7-29.1
			c0-16.1-12.8-29.1-28.7-29.1c-5.4,0-10.4,1.5-14.7,4.1l-1.3-1.3l10.8-15.9c0.7-1,1.1-2.2,1.3-3.3c1.3-0.1,2.6-0.2,3.9-0.2
			c13.8,0,26.2,6.3,34.4,16.3l-1.1-1.1l-11.5,11.5L186.6,204.7z"/>
		<path class="st2" d="M133,204.6l-14.9-14.9c0.9-1.8,2-3.6,3.2-5.2c1-0.6,1.9-1.4,2.7-2.5l0.9-1.3c1.3-1.2,2.7-2.2,4.2-3.1
			l16.1,16.1c3.2,3.2,3.2,8.3,0,11.5c-3.2,3.2-8.3,3.2-11.5,0L133,204.6z"/>
		<path class="st2" d="M140,156c0,0.4,0,0.8-0.1,1.2c-10.3,0.9-19.7,5.3-26.8,12.1l12.1-17.9c2.5-3.7,7.5-4.7,11.2-2.2
			C138.8,150.8,140,153.4,140,156z"/>
		<path class="st2" d="M139.9,157.2c-0.2,1.1-0.6,2.3-1.3,3.3l-10.8,15.9l-4.6-4.6c-1.6-1.6-3.7-2.4-5.8-2.4c-2.1,0-4.2,0.8-5.8,2.4
			c-3.2,3.2-3.2,8.3,0,11.5l0.7,0.7c-3.4-2.6-4.2-7.4-1.7-10.9l2.5-3.7C120.2,162.5,129.6,158.1,139.9,157.2z"/>
		<path class="st2" d="M127.8,176.4l1.3,1.3c-1.5,0.9-2.9,2-4.2,3.1L127.8,176.4z"/>
		<path class="st2" d="M127.8,176.4l-3,4.4c-1.3,1.1-2.5,2.4-3.5,3.7c-2.6,1.5-5.9,1.5-8.6-0.3c-0.1-0.1-0.3-0.2-0.4-0.3l-0.7-0.7
			c-3.2-3.2-3.2-8.3,0-11.5c1.6-1.6,3.7-2.4,5.8-2.4c2.1,0,4.2,0.8,5.8,2.4L127.8,176.4z"/>
		<path class="st2" d="M124.9,180.8l-0.9,1.3c-0.7,1-1.6,1.9-2.7,2.5C122.4,183.2,123.6,182,124.9,180.8z"/>
		<path class="st2" d="M121.3,184.6c-1.3,1.6-2.3,3.3-3.2,5.2l-5.8-5.8c0.1,0.1,0.3,0.2,0.4,0.3
			C115.4,186.1,118.7,186.1,121.3,184.6z"/>
		<path class="st2" d="M115.2,205.4c0,0.3,0,0.5,0,0.8c0,4.5-3.7,8.2-8.2,8.2c-4,0-7.3-2.9-8-6.7c-0.1-0.5-0.1-1-0.1-1.5
			c0,0,0,0,0,0L115.2,205.4z"/>
		<path class="st2" d="M115.2,205.4l-16.3,0.7c0-4.5,3.7-8.1,8.2-8.1C111.4,198,114.8,201.3,115.2,205.4z"/>
		<path class="st2" d="M99.1,207.7c-0.1-0.5-0.1-1-0.1-1.5c0,0,0,0,0,0C99,206.7,99,207.2,99.1,207.7z"/>
	</g>
	<g>
		<path class="st1" d="M188.6,206.3c-1.8,23.6-21.2,42.1-44.8,42.1c-23.2,0-42.3-17.8-44.7-40.7"/>
		<path class="st1" d="M139.9,157.2c1.3-0.1,2.6-0.2,3.9-0.2c13.8,0,26.2,6.3,34.4,16.3"/>
		<path class="st1" d="M129.1,177.7c4.3-2.6,9.3-4.1,14.7-4.1c15.8,0,28.7,13,28.7,29.1c0,16.1-12.8,29.1-28.7,29.1
			c-14.9,0-27.2-11.6-28.5-26.4"/>
		<line class="st1" x1="178.2" y1="173.3" x2="201.5" y2="196.6"/>
		<path class="st1" d="M190.7,207.4c-0.7-0.3-1.4-0.7-2.1-1.1"/>
		<path class="st1" d="M112.3,184c-3.4-2.6-4.2-7.4-1.7-10.9l2.5-3.7l12.1-17.9c2.5-3.7,7.5-4.7,11.2-2.2c2.3,1.6,3.6,4.1,3.6,6.7
			c0,0.4,0,0.8-0.1,1.2"/>
		<line class="st1" x1="115.2" y1="205.4" x2="115.2" y2="205.4"/>
		<path class="st1" d="M129.1,177.7l16.1,16.1c3.2,3.2,3.2,8.3,0,11.5c-3.2,3.2-8.3,3.2-11.5,0l-0.7-0.7l-14.9-14.9l-5.8-5.8"/>
		<path class="st1" d="M201.5,196.6l7.6-7.6c1.8-1.8,4.6-1.8,6.4,0c1.8,1.8,1.8,4.6,0,6.4l-16.3,16.3c-1.5,1.5-4,1.5-5.5,0l-0.8-0.8
			L190,208l0.6-0.6"/>
		<path class="st1" d="M99.1,207.7c-0.1-0.5-0.1-1-0.1-1.5c0,0,0,0,0,0c0,0,0,0,0,0c0-4.5,3.7-8.1,8.2-8.1c4.2,0,7.7,3.2,8.1,7.4"/>
	</g>
</g>
<circle class="st3" cx="143.5" cy="121.1" r="14.5"/>
<circle class="st3" cx="200.1" cy="236" r="12"/>
<g id="XMLID_4_">
	<g>
		<path class="st4" d="M504.5,213.8c9.1,0,14.7,9.8,10.2,17.6l-0.8,1.5c0,0,0,0,0,0c-17.5,27.9-48.5,46.4-83.8,46.4
			c-35.3,0-66.3-18.5-83.8-46.4c0,0,0,0,0,0l-0.9-1.5c-4.5-7.8,1.1-17.6,10.2-17.6H504.5z"/>
		<path class="st4" d="M514.7,231.4c4.5-7.8-1.1-17.6-10.2-17.6h-149c-9.1,0-14.7,9.8-10.2,17.6l0.9,1.5c-9.5-15.2-15-33.2-15-52.5
			c0-54.6,44.3-98.9,98.9-98.9c54.6,0,98.9,44.3,98.9,98.9c0,19.3-5.5,37.2-15,52.4L514.7,231.4z"/>
		<path class="st4" d="M513.9,232.9l-73.7,127.6c-4.5,7.8-15.8,7.8-20.4,0l-73.6-127.6c17.5,27.9,48.5,46.4,83.8,46.4
			C465.4,279.3,496.4,260.8,513.9,232.9z"/>
	</g>
	<g>
		<path class="st1" d="M346.2,232.9c-9.5-15.2-15-33.2-15-52.5c0-54.6,44.3-98.9,98.9-98.9c54.6,0,98.9,44.3,98.9,98.9
			c0,19.3-5.5,37.2-15,52.4"/>
		<path class="st1" d="M513.9,232.9l-73.7,127.6c-4.5,7.8-15.8,7.8-20.4,0l-73.6-127.6"/>
	</g>
</g>
<g id="XMLID_3_">
	<g>
		<path class="st2" d="M474.5,213.9c-1.8,0.1-3.7-0.2-5.4-1l10.8-10.8l5.5,5.5l-2.6,2.6C480.6,212.6,477.6,213.8,474.5,213.9z"/>
		<path class="st2" d="M471.3,216.5l3.2-2.5c3-0.1,6-1.4,8.4-3.7l2.6-2.6l-5.5-5.5l7.6-7.6c1.8-1.8,4.6-1.8,6.4,0
			c1.8,1.8,1.8,4.6,0,6.4l-16.3,16.3c-1.5,1.5-4,1.5-5.5,0L471.3,216.5z"/>
		<path class="st2" d="M479.9,202.2L469.1,213c-0.7-0.3-1.4-0.7-2.1-1.1c0.1-1.2,0.1-2.4,0.1-3.6c0-11.2-4-21.5-10.6-29.4
			L479.9,202.2z"/>
		<path class="st2" d="M468.4,213.6l0.6-0.6c1.7,0.7,3.6,1.1,5.4,1l-3.2,2.5L468.4,213.6z"/>
		<path class="st2" d="M465.1,210.3l-21-21l11.5-11.5l1.1,1.1c6.6,7.9,10.6,18.2,10.6,29.4c0,1.2,0,2.4-0.1,3.6
			C466.3,211.4,465.7,210.9,465.1,210.3z"/>
		<path class="st2" d="M456.6,178.9l-1.1-1.1l-11.5,11.5l21,21c0.6,0.6,1.3,1.1,1.9,1.6c-1.8,23.6-21.2,42.1-44.8,42.1
			c-23.2,0-42.3-17.8-44.7-40.7c0.7,3.8,4,6.7,8,6.7c4.5,0,8.2-3.7,8.2-8.2c0-0.3,0-0.5,0-0.8h0c1.3,14.8,13.6,26.4,28.5,26.4
			c15.8,0,28.7-13,28.7-29.1c0-16.1-12.8-29.1-28.7-29.1c-5.4,0-10.4,1.5-14.7,4.1l-1.3-1.3l10.8-15.9c0.7-1,1.1-2.2,1.3-3.3
			c1.3-0.1,2.6-0.2,3.9-0.2C436,162.6,448.4,168.9,456.6,178.9z"/>
		<path class="st2" d="M411.4,210.2l-14.9-14.9c0.9-1.8,2-3.6,3.2-5.2c1-0.6,1.9-1.4,2.7-2.5l0.9-1.3c1.3-1.2,2.7-2.2,4.2-3.1
			l16.1,16.1c3.2,3.2,3.2,8.3,0,11.5c-3.2,3.2-8.3,3.2-11.5,0L411.4,210.2z"/>
		<path class="st2" d="M418.4,161.6c0,0.4,0,0.8-0.1,1.2c-10.3,0.9-19.7,5.3-26.8,12.1l12.1-17.9c2.5-3.7,7.5-4.7,11.2-2.2
			C417.2,156.4,418.4,159,418.4,161.6z"/>
		<path class="st2" d="M418.3,162.8c-0.2,1.1-0.6,2.3-1.3,3.3L406.3,182l-4.6-4.6c-1.6-1.6-3.7-2.4-5.8-2.4c-2.1,0-4.2,0.8-5.8,2.4
			c-3.2,3.2-3.2,8.3,0,11.5l0.7,0.7c-3.4-2.6-4.2-7.4-1.7-10.9l2.5-3.7C398.7,168.1,408,163.7,418.3,162.8z"/>
		<path class="st2" d="M406.3,182l1.3,1.3c-1.5,0.9-2.9,2-4.2,3.1L406.3,182z"/>
		<path class="st2" d="M406.3,182l-3,4.4c-1.3,1.1-2.5,2.4-3.5,3.8c-2.6,1.5-5.9,1.5-8.6-0.3c-0.1-0.1-0.3-0.2-0.4-0.3l0,0l-0.7-0.7
			c-3.2-3.2-3.2-8.3,0-11.5c1.6-1.6,3.7-2.4,5.8-2.4c2.1,0,4.2,0.8,5.8,2.4L406.3,182z"/>
		<path class="st2" d="M403.3,186.4l-0.9,1.3c-0.7,1.1-1.6,1.9-2.7,2.5C400.8,188.8,402,187.6,403.3,186.4z"/>
		<path class="st2" d="M399.8,190.2c-1.2,1.6-2.3,3.3-3.2,5.2l-5.8-5.8c0.1,0.1,0.3,0.2,0.4,0.3
			C393.8,191.7,397.2,191.7,399.8,190.2z"/>
		<path class="st2" d="M393.7,211c0,0.3,0,0.5,0,0.8c0,4.5-3.7,8.2-8.2,8.2c-4,0-7.3-2.9-8-6.7c-0.1-0.5-0.1-1-0.1-1.5c0,0,0,0,0,0
			L393.7,211z"/>
		<path class="st2" d="M393.7,211l-16.3,0.7c0-4.5,3.7-8.1,8.2-8.1C389.8,203.6,393.3,206.9,393.7,211z"/>
		<path class="st2" d="M377.5,213.3c-0.1-0.5-0.1-1-0.1-1.5c0,0,0,0,0,0C377.4,212.3,377.5,212.8,377.5,213.3z"/>
	</g>
	<g>
		<path class="st1" d="M467,211.9c-1.8,23.6-21.2,42.1-44.8,42.1c-23.2,0-42.3-17.8-44.7-40.7"/>
		<path class="st1" d="M418.3,162.8c1.3-0.1,2.6-0.2,3.9-0.2c13.8,0,26.2,6.3,34.4,16.3"/>
		<path class="st1" d="M407.5,183.3c4.3-2.6,9.3-4.1,14.7-4.1c15.8,0,28.7,13,28.7,29.1c0,16.1-12.8,29.1-28.7,29.1
			c-14.9,0-27.2-11.6-28.5-26.4"/>
		<line class="st1" x1="456.6" y1="178.9" x2="479.9" y2="202.2"/>
		<path class="st1" d="M469.1,213c-0.7-0.3-1.4-0.7-2.1-1.1"/>
		<path class="st1" d="M390.8,189.6c-3.4-2.6-4.2-7.4-1.7-10.9l2.5-3.7l12.1-17.9c2.5-3.7,7.5-4.7,11.2-2.2c2.3,1.6,3.6,4.1,3.6,6.7
			c0,0.4,0,0.8-0.1,1.2"/>
		<line class="st1" x1="393.7" y1="211" x2="393.7" y2="211"/>
		<path class="st1" d="M407.5,183.3l16.1,16.1c3.2,3.2,3.2,8.3,0,11.5c-3.2,3.2-8.3,3.2-11.5,0l-0.7-0.7l-14.9-14.9l-5.8-5.8l0,0"/>
		<path class="st1" d="M479.9,202.2l7.6-7.6c1.8-1.8,4.6-1.8,6.4,0c1.8,1.8,1.8,4.6,0,6.4l-16.3,16.3c-1.5,1.5-4,1.5-5.5,0l-0.8-0.8
			l-2.9-2.9l0.6-0.6"/>
		<path class="st1" d="M377.5,213.3c-0.1-0.5-0.1-1-0.1-1.5c0,0,0,0,0,0c0,0,0,0,0,0c0-4.5,3.7-8.1,8.2-8.1c4.2,0,7.7,3.2,8.1,7.4"
			/>
	</g>
</g>
<circle class="st3" cx="421.9" cy="126.7" r="14.5"/>
<circle class="st3" cx="478.6" cy="241.6" r="12"/>
<g id="XMLID_6_">
	<g>
		<path class="st5" d="M705.2,360.5l-73.6-127.6c17.5,27.9,48.5,46.4,83.8,46.4c35.3,0,66.4-18.5,83.8-46.4l-73.7,127.6
			C721,368.3,709.7,368.3,705.2,360.5z"/>
		<path class="st5" d="M630.7,231.4c-4.5-7.8,1.1-17.6,10.2-17.6h149c9.1,0,14.7,9.8,10.2,17.6l-0.8,1.5c0,0,0,0,0,0
			c-17.5,27.9-48.5,46.4-83.8,46.4c-35.3,0-66.3-18.5-83.8-46.4c0,0,0,0,0,0L630.7,231.4z"/>
		<path class="st5" d="M814.2,180.4c0,19.3-5.5,37.2-15,52.4l0.8-1.5c4.5-7.8-1.1-17.6-10.2-17.6h-149c-9.1,0-14.7,9.8-10.2,17.6
			l0.9,1.5c-9.5-15.2-15-33.2-15-52.5c0-54.6,44.3-98.9,98.9-98.9C770,81.5,814.2,125.8,814.2,180.4z"/>
	</g>
	<g>
		<path class="st1" d="M631.5,232.9c-9.5-15.2-15-33.2-15-52.5c0-54.6,44.3-98.9,98.9-98.9c54.6,0,98.9,44.3,98.9,98.9
			c0,19.3-5.5,37.2-15,52.4"/>
		<path class="st1" d="M799.2,232.9l-73.7,127.6c-4.5,7.8-15.8,7.8-20.4,0l-73.6-127.6"/>
	</g>
</g>
<g id="XMLID_5_">
	<g>
		<path class="st2" d="M759.9,213.9c-1.8,0.1-3.7-0.2-5.4-1l10.8-10.8l5.5,5.5l-2.6,2.6C765.9,212.6,762.9,213.8,759.9,213.9z"/>
		<path class="st2" d="M770.8,207.7l-5.5-5.5l7.6-7.6c1.8-1.8,4.6-1.8,6.4,0c1.8,1.8,1.8,4.6,0,6.4l-16.3,16.3c-1.5,1.5-4,1.5-5.5,0
			l-0.8-0.8l3.2-2.5c3-0.1,6-1.4,8.4-3.7L770.8,207.7z"/>
		<path class="st2" d="M765.2,202.2L754.4,213c-0.7-0.3-1.4-0.7-2.1-1.1c0.1-1.2,0.1-2.4,0.1-3.6c0-11.2-4-21.5-10.6-29.4
			L765.2,202.2z"/>
		<path class="st2" d="M753.8,213.6l0.6-0.6c1.7,0.7,3.6,1.1,5.4,1l-3.2,2.5L753.8,213.6z"/>
		<path class="st2" d="M750.4,210.3l-21-21l11.5-11.5l1.1,1.1c6.6,7.9,10.6,18.2,10.6,29.4c0,1.2,0,2.4-0.1,3.6
			C751.7,211.4,751,210.9,750.4,210.3z"/>
		<path class="st2" d="M750.4,210.3c0.6,0.6,1.3,1.1,1.9,1.6c-1.8,23.6-21.2,42.1-44.8,42.1c-23.2,0-42.3-17.8-44.7-40.7
			c0.7,3.8,4,6.7,8,6.7c4.5,0,8.2-3.7,8.2-8.2c0-0.3,0-0.5,0-0.8h0c1.3,14.8,13.6,26.4,28.5,26.4c15.8,0,28.7-13,28.7-29.1
			c0-16.1-12.8-29.1-28.7-29.1c-5.4,0-10.4,1.5-14.7,4.1l-1.3-1.3l10.8-15.9c0.7-1,1.1-2.2,1.3-3.3c1.3-0.1,2.6-0.2,3.9-0.2
			c13.8,0,26.2,6.3,34.4,16.3l-1.1-1.1l-11.5,11.5L750.4,210.3z"/>
		<path class="st2" d="M696.8,210.2l-14.9-14.9c0.9-1.8,2-3.6,3.2-5.2c1-0.6,1.9-1.4,2.7-2.5l0.9-1.3c1.3-1.2,2.7-2.2,4.2-3.1
			l16.1,16.1c3.2,3.2,3.2,8.3,0,11.5c-3.2,3.2-8.3,3.2-11.5,0L696.8,210.2z"/>
		<path class="st2" d="M703.8,161.6c0,0.4,0,0.8-0.1,1.2c-10.3,0.9-19.7,5.3-26.8,12.1L689,157c2.5-3.7,7.5-4.7,11.2-2.2
			C702.5,156.4,703.8,159,703.8,161.6z"/>
		<path class="st2" d="M703.7,162.8c-0.2,1.1-0.6,2.3-1.3,3.3L691.6,182l-4.6-4.6c-1.6-1.6-3.7-2.4-5.8-2.4c-2.1,0-4.2,0.8-5.8,2.4
			c-3.2,3.2-3.2,8.3,0,11.5l0.7,0.7c-3.4-2.6-4.2-7.4-1.7-10.9l2.5-3.7C684,168.1,693.3,163.7,703.7,162.8z"/>
		<path class="st2" d="M691.6,182l1.3,1.3c-1.5,0.9-2.9,2-4.2,3.1L691.6,182z"/>
		<path class="st2" d="M691.6,182l-3,4.4c-1.3,1.1-2.5,2.4-3.5,3.8c-2.6,1.5-5.9,1.5-8.6-0.3c-0.1-0.1-0.3-0.2-0.4-0.3l0,0l-0.7-0.7
			c-3.2-3.2-3.2-8.3,0-11.5c1.6-1.6,3.7-2.4,5.8-2.4c2.1,0,4.2,0.8,5.8,2.4L691.6,182z"/>
		<path class="st2" d="M688.6,186.4l-0.9,1.3c-0.7,1.1-1.6,1.9-2.7,2.5C686.2,188.8,687.4,187.6,688.6,186.4z"/>
		<path class="st2" d="M685.1,190.2c-1.2,1.6-2.3,3.3-3.2,5.2l-5.8-5.8c0.1,0.1,0.3,0.2,0.4,0.3
			C679.2,191.7,682.5,191.7,685.1,190.2z"/>
		<path class="st2" d="M679,211c0,0.3,0,0.5,0,0.8c0,4.5-3.7,8.2-8.2,8.2c-4,0-7.3-2.9-8-6.7c-0.1-0.5-0.1-1-0.1-1.5c0,0,0,0,0,0
			L679,211z"/>
		<path class="st2" d="M679,211l-16.3,0.7c0-4.5,3.7-8.1,8.2-8.1C675.1,203.6,678.6,206.9,679,211z"/>
		<path class="st2" d="M662.9,213.3c-0.1-0.5-0.1-1-0.1-1.5c0,0,0,0,0,0C662.7,212.3,662.8,212.8,662.9,213.3z"/>
	</g>
	<g>
		<path class="st1" d="M752.4,211.9c-1.8,23.6-21.2,42.1-44.8,42.1c-23.2,0-42.3-17.8-44.7-40.7"/>
		<path class="st1" d="M703.7,162.8c1.3-0.1,2.6-0.2,3.9-0.2c13.8,0,26.2,6.3,34.4,16.3"/>
		<path class="st1" d="M692.9,183.3c4.3-2.6,9.3-4.1,14.7-4.1c15.8,0,28.7,13,28.7,29.1c0,16.1-12.8,29.1-28.7,29.1
			c-14.9,0-27.2-11.6-28.5-26.4"/>
		<line class="st1" x1="741.9" y1="178.9" x2="765.2" y2="202.2"/>
		<path class="st1" d="M754.4,213c-0.7-0.3-1.4-0.7-2.1-1.1"/>
		<path class="st1" d="M676.1,189.6c-3.4-2.6-4.2-7.4-1.7-10.9l2.5-3.7L689,157c2.5-3.7,7.5-4.7,11.2-2.2c2.3,1.6,3.6,4.1,3.6,6.7
			c0,0.4,0,0.8-0.1,1.2"/>
		<line class="st1" x1="679" y1="211" x2="679" y2="211"/>
		<path class="st1" d="M692.9,183.3l16.1,16.1c3.2,3.2,3.2,8.3,0,11.5c-3.2,3.2-8.3,3.2-11.5,0l-0.7-0.7l-14.9-14.9l-5.8-5.8l0,0"/>
		<path class="st1" d="M765.2,202.2l7.6-7.6c1.8-1.8,4.6-1.8,6.4,0c1.8,1.8,1.8,4.6,0,6.4l-16.3,16.3c-1.5,1.5-4,1.5-5.5,0l-0.8-0.8
			l-2.9-2.9l0.6-0.6"/>
		<path class="st1" d="M662.9,213.3c-0.1-0.5-0.1-1-0.1-1.5c0,0,0,0,0,0c0,0,0,0,0,0c0-4.5,3.7-8.1,8.2-8.1c4.2,0,7.7,3.2,8.1,7.4"
			/>
	</g>
</g>
<circle class="st3" cx="707.3" cy="126.7" r="14.5"/>
<circle class="st3" cx="763.9" cy="241.6" r="12"/>
</svg>
